<svg width="921.497" height="837.794" viewBox="0 0 921.49689 837.79395" xmlns="http://www.w3.org/2000/svg">
   <g fill="none" stroke-miterlimit="10">
      <path
         d="M0 0s151.128 20.968 184.248-93.808c33.12-114.777-33.133-301.564 117.477-351.72 150.61-50.156 353.721-15.682 395.436-174.318"
         transform="matrix(1.33333 0 0 -1.33333 -17.546 11.825)" clip-path="url(#prefix__clipPath146)" stroke="#cfb900"
         stroke-width="14.727" />
      <path
         d="M0 0s147.384 55.39 180.504-59.387c33.12-114.776-23.883-315.807 126.727-365.963 150.61-50.156 355.69 13.875 397.405-144.761"
         transform="matrix(1.33333 0 0 -1.33333 -63.96 87.94)" clip-path="url(#prefix__clipPath148)" stroke="#d4233d"
         stroke-width="16.671" />
      <path
         d="M0 0s147.384 55.39 180.504-59.387c33.12-114.776-20.858-321.87 129.752-372.026 150.61-50.156 360.918 5.894 393.882-120.231"
         transform="matrix(1.33333 0 0 -1.33333 -93.49 120.009)" clip-path="url(#prefix__clipPath150)" stroke="#0b8245"
         stroke-width="13.405" />
   </g>
</svg>