<?xml version="1.0" encoding="UTF-8"?>
<svg id="Layer_2" data-name="Layer 2" xmlns="http://www.w3.org/2000/svg" viewBox="0 0 399.94 206.13">
  <defs>
    <style>
      .cls-1 {
        fill: #ff6681;
      }

      .cls-2 {
        fill: #c33742;
      }

      .cls-3 {
        fill: #cbba00;
      }
    </style>
  </defs>
  <g id="Layer_1-2" data-name="Layer 1">
    <g>
      <path class="cls-3" d="M82.42,93.46c20.44,32.87,49.24,50.4,88.05,53.58,36.37,2.98,74.84-.53,112.05-3.93,42.27-3.86,82.28-7.51,117.42-1.97v-11.32c-36.05-5.37-76.14-1.72-118.44,2.15-36.73,3.35-74.71,6.82-110.12,3.92-35.51-2.91-60.76-18.27-79.46-48.34C76.65,63,67.65,31.39,59.46,0h-11.56c8.61,33.12,17.93,66.78,34.53,93.46Z"/>
      <path class="cls-1" d="M63.56,122.68c22.34,35.47,52.4,54.29,91.88,57.53,41.06,3.37,83.86-3.95,125.24-11.02,40.5-6.92,78.75-13.47,111.69-9.41,2.58,.32,5.1,.71,7.57,1.15v-12.65c-1.99-.33-4-.63-6.05-.88-34.76-4.27-73.88,2.42-115.31,9.5-40.62,6.94-82.63,14.13-122.12,10.89C77.17,161.27,55.47,85.77,34.49,12.75c-1.23-4.29-2.45-8.54-3.68-12.75h-13c1.56,5.33,3.12,10.74,4.69,16.2,10.73,37.34,21.82,75.94,41.06,106.48Z"/>
      <path class="cls-2" d="M399.94,172.18c-34.16-4.98-75.96,2.27-119.08,9.75-44.4,7.71-90.31,15.67-133.13,12.16C67.58,187.52,44.55,109.72,22.29,34.49,18.79,22.68,15.36,11.11,11.77,0H0C3.97,12.03,7.72,24.7,11.56,37.66c22.25,75.18,47.46,160.38,135.25,167.58,44.24,3.63,90.86-4.46,135.96-12.29,44.29-7.69,85.1-14.76,117.17-9.58v-11.2Z"/>
    </g>
  </g>
</svg>